#!OML:ASF H:\Terrain\Patient Classification 1\Animal2\Wednesday\Animal2.ASF
:FULLY-SPECIFIED
:DEGREES
2549
root 11.812 18.9022 9.21921 6.60445 -7.97846 0.674449
lowerback 5.85709 -2.36634 2.52655
upperback -3.12462 -2.94491 0.0983304
thorax -6.67451 -1.56031 -0.970172
lowerneck 6.66339 5.93921 15.5446
upperneck -36.8112 4.5194 -22.1702
head -11.8357 2.59067 -12.3932
rclavicle -4.09248e-014 3.97569e-015
rhumerus -31.9487 15.5345 -51.326
rradius 141.64
rwrist -2.26599
rhand -23.7133 32.7775
rfingers 7.12502
rthumb 2.7542 2.81554
lclavicle -4.09248e-014 3.97569e-015
lhumerus -34.878 -29.5438 55.098
lradius 142.131
lwrist 34.4777
lhand 4.79029 3.21806
lfingers 7.12502
lthumb 30.1699 30.7744
rfemur -16.1095 2.6405 19.1934
rtibia 26.9959
rfoot -3.84368 0.626962
rtoes 33.8905
lfemur -12.6041 -2.60015 -21.6569
ltibia 22.0625
lfoot -2.26912 -4.2534
ltoes -33.2026
2550
root 11.7884 18.8159 9.20911 6.13172 -8.0671 0.480009
lowerback 6.24169 -2.29093 2.86811
upperback -3.0489 -2.80417 0.0632991
thorax -6.83016 -1.50681 -1.20064
lowerneck 6.84145 5.80404 15.5122
upperneck -36.3217 4.39125 -22.1478
head -11.7081 2.5586 -12.3122
rclavicle -3.58868e-014 3.18055e-015
rhumerus -31.4916 15.8701 -50.0426
rradius 141.349
rwrist -1.67886
rhand -23.3161 32.8407
rfingers 7.12502
rthumb 3.13783 2.88407
lclavicle -3.58868e-014 3.18055e-015
lhumerus -33.2971 -29.5139 52.3382
lradius 142.318
lwrist 35.3002
lhand 3.068 3.37908
lfingers 7.12502
lthumb 28.5255 31.2234
rfemur -15.7635 3.38473 19.2627
rtibia 26.9566
rfoot -3.45963 0.169055
rtoes 33.8736
lfemur -12.1664 -2.54862 -21.5559
ltibia 21.8269
lfoot -1.4112 -5.63562
ltoes -28.8068
2551
root 11.7639 18.7289 9.19857 5.64212 -8.14106 0.431261
lowerback 6.66093 -2.29278 3.07948
upperback -2.96899 -2.77944 -0.0341597
thorax -7.0022 -1.50657 -1.40908
lowerneck 6.96295 5.7033 15.5723
upperneck -35.7585 4.33484 -22.112
head -11.5176 2.54634 -12.2275
rclavicle 3.83344e-014 -4.37326e-015
rhumerus -31.4182 17.0179 -49.4493
rradius 141.095
rwrist -1.54953
rhand -22.2404 32.788
rfingers 7.12502
rthumb 4.17665 2.84916
lclavicle 3.83344e-014 -4.37326e-015
lhumerus -31.9245 -29.3323 49.7612
lradius 142.403
lwrist 36.7114
lhand 1.56533 3.66203
lfingers 7.12502
lthumb 27.0888 31.7386
rfemur -15.316 3.61902 19.2204
rtibia 26.9479
rfoot -4.2497 0.634991
rtoes 31.0578
lfemur -11.7157 -2.32893 -21.6454
ltibia 21.6538
lfoot -1.66191 -6.52193
ltoes -23.5118
2552
root 11.7393 18.6415 9.18996 5.10635 -8.41675 0.808911
lowerback 6.95169 -2.22091 2.79411
upperback -2.84702 -2.71382 -0.212654
thorax -7.03066 -1.46438 -1.43699
lowerneck 7.32465 5.62625 15.6062
upperneck -35.3785 4.32481 -22.0962
head -11.4445 2.56203 -12.1971
rclavicle -3.80486e-014 7.35503e-015
rhumerus -31.5908 18.7957 -49.4955
rradius 140.743
rwrist -1.35995
rhand -21.9537 32.9036
rfingers 7.12502
rthumb 4.45352 2.97041
lclavicle -3.80486e-014 7.35503e-015
lhumerus -30.8162 -28.9024 47.6466
lradius 142.31
lwrist 38.2286
lhand 0.999885 4.26889
lfingers 7.12502
lthumb 26.5477 32.4285
rfemur -14.9152 3.67135 18.7043
rtibia 27.0368
rfoot -5.63466 1.95709
rtoes 28.7268
lfemur -11.1424 -2.50786 -22.2169
ltibia 21.6342
lfoot -3.43264 -5.32508
ltoes -23.5663
2553
root 11.7106 18.5452 9.18104 4.67576 -8.67711 1.2029
lowerback 6.99357 -2.06574 2.42006
upperback -2.66213 -2.551 -0.342036
thorax -6.83762 -1.36736 -1.3876
lowerneck 7.59418 5.50553 15.578
upperneck -34.9855 4.21811 -22.1069
head -11.3733 2.5411 -12.1572
rclavicle 4.23411e-014 1.0138e-014
rhumerus -32.109 20.5281 -49.8404
rradius 140.324
rwrist -1.00115
rhand -21.8668 33.3731
rfingers 7.12502
rthumb 4.53738 3.4417
lclavicle 4.23411e-014 1.0138e-014
lhumerus -29.6432 -28.3817 45.9819
lradius 142.003
lwrist 39.1493
lhand 1.39337 4.9034
lfingers 7.12502
lthumb 26.9243 33.0055
rfemur -14.6378 3.72498 18.2456
rtibia 27.3043
rfoot -7.00899 3.36106
rtoes 27.6599
lfemur -10.5926 -2.72126 -22.7381
ltibia 21.7575
lfoot -5.27175 -3.37263
ltoes -27.7611
2554
root 11.6812 18.4381 9.16538 4.35329 -8.81217 1.22349
lowerback 7.22407 -1.9777 2.32539
upperback -2.57118 -2.43616 -0.329995
thorax -6.86322 -1.30545 -1.33133
lowerneck 7.64621 5.39874 15.6283
upperneck -34.535 4.11965 -22.1191
head -11.2273 2.50775 -12.1069
rclavicle -2.16178e-014 1.25234e-014
rhumerus -32.9391 22.3867 -50.7349
rradius 139.847
rwrist -0.256858
rhand -21.5405 33.4728
rfingers 7.12502
rthumb 4.85244 3.54841
lclavicle -2.16178e-014 1.25234e-014
lhumerus -28.8205 -28.1324 44.8688
lradius 141.586
lwrist 39.4377
lhand 1.36427 5.06846
lfingers 7.12502
lthumb 26.8964 33.1748
rfemur -14.3208 3.9546 18.2771
rtibia 27.7177
rfoot -8.66565 4.31328
rtoes 27.383
lfemur -10.1151 -2.6341 -22.7971
ltibia 21.9629
lfoot -6.67811 -2.59988
ltoes -30.1662
